<svg xmlns="http://www.w3.org/2000/svg" xml:space="preserve" width="2000" height="131" data-id="lg_vYKDKO0UoDGsCGUuNa" data-version="1"><g data-padding="20"><g fill="#06bbcc" stroke="null" transform="translate(10 2.44)scale(.96276)"><filter id="a" width="142%" height="158%" x="-21%" y="-29%"><feGaussianBlur in="SourceAlpha" stdDeviation="2"/><feOffset dx="2" dy="2" result="oBlur"/><feFlood flood-color="#06303e" flood-opacity="1"/><feComposite in2="oBlur" operator="in"/><feMerge><feMergeNode/><feMergeNode in="SourceGraphic"/></feMerge></filter><path d="M932.48 68.94q1.56 0 2.86-.14 1.3-.15 2.45-.45 1.15-.29 2.17-.71 1.02-.41 2.04-.95v-8.47h-5.95q-.51 0-.82-.3-.31-.29-.31-.72v-2.95h11.8V69q-1.45 1.04-3.02 1.82-1.56.78-3.35 1.3-1.78.52-3.82.78-2.04.25-4.42.25-4.19 0-7.67-1.43-3.49-1.44-6.01-4.02-2.52-2.59-3.93-6.21-1.4-3.62-1.4-7.96 0-4.4 1.38-8.02t3.94-6.21 6.19-4.01q3.64-1.42 8.14-1.42 2.28 0 4.24.34 1.95.33 3.63.96t3.1 1.53 2.65 2.02l-1.47 2.36q-.46.73-1.18.73-.43 0-.94-.3-.67-.37-1.5-.91-.83-.53-2.03-1.03-1.19-.5-2.81-.85-1.62-.34-3.85-.34-3.24 0-5.87 1.06-2.63 1.05-4.48 3.03-1.85 1.97-2.84 4.77t-.99 6.29q0 3.64 1.03 6.5 1.03 2.85 2.91 4.84 1.87 1.98 4.45 3.03 2.57 1.04 5.68 1.04Zm31.88-12.25h-3.94v16.03h-5.17V34.3h10.86q3.64 0 6.3.74 2.65.74 4.38 2.13t2.56 3.36q.83 1.98.83 4.42 0 2.03-.64 3.8t-1.86 3.18-2.98 2.4-3.98 1.5q.96.57 1.71 1.64l11.21 15.25h-4.61q-1.42 0-2.09-1.09l-9.98-13.73q-.45-.65-.99-.93-.53-.28-1.61-.28Zm-3.94-18.29v14.51h5.45q2.27 0 4-.55t2.9-1.56q1.17-1 1.76-2.4.59-1.39.59-3.08 0-3.43-2.27-5.17-2.27-1.75-6.74-1.75Zm45.08-4.1 15.36 38.42h-4.02q-.7 0-1.13-.34-.43-.35-.64-.89l-3.59-9.28h-17.25l-3.59 9.28q-.19.48-.64.86-.46.37-1.13.37h-4.02l15.36-38.42Zm-3.78 8.55-6.04 15.61h14.35l-6.04-15.63q-.59-1.45-1.15-3.62-.29 1.1-.58 2.02-.28.93-.54 1.62Zm57.3 10.68q0 4.31-1.37 7.85t-3.86 6.06q-2.5 2.52-5.98 3.9-3.49 1.38-7.72 1.38h-14.38V34.3h14.38q4.23 0 7.72 1.38 3.48 1.38 5.98 3.92 2.49 2.53 3.86 6.07t1.37 7.86Zm-5.34 0q0-3.54-.97-6.33-.96-2.79-2.73-4.72t-4.29-2.95-5.6-1.02h-9.15v30h9.15q3.08 0 5.6-1.01 2.52-1.02 4.29-2.94t2.73-4.71q.97-2.78.97-6.32Zm12.41-19.23h23.68v4.24h-18.45V51.3h14.94v4.08h-14.94v13.11h18.45v4.23h-23.68Zm55.11 38.42h-13.6V34.3h12.26q3.54 0 6.1.7 2.56.69 4.21 1.98 1.64 1.29 2.44 3.15.79 1.87.79 4.2 0 1.42-.45 2.73-.44 1.32-1.34 2.44-.89 1.13-2.25 2.01-1.35.89-3.18 1.45 4.21.83 6.36 3.03 2.14 2.2 2.14 5.79 0 2.44-.89 4.46-.9 2.01-2.63 3.45-1.73 1.45-4.24 2.24t-5.72.79Zm-.11-17.5h-8.29V68.6h8.32q2.22 0 3.82-.51 1.59-.51 2.62-1.44 1.04-.92 1.52-2.2.48-1.27.48-2.8 0-2.98-2.1-4.71-2.11-1.72-6.37-1.72Zm-8.29-16.82v13.11h6.87q2.2 0 3.81-.48 1.6-.48 2.66-1.34t1.57-2.08.51-2.66q0-3.38-2.04-4.96-2.03-1.59-6.32-1.59Zm39.15 18.29h-3.94v16.03h-5.17V34.3h10.85q3.65 0 6.31.74 2.65.74 4.38 2.13t2.56 3.36q.83 1.98.83 4.42 0 2.03-.64 3.8-.65 1.77-1.87 3.18t-2.97 2.4q-1.76.99-3.98 1.5.96.57 1.71 1.64l11.21 15.25h-4.61q-1.42 0-2.09-1.09l-9.98-13.73q-.45-.65-.99-.93t-1.61-.28Zm-3.94-18.29v14.51h5.44q2.28 0 4.01-.55t2.9-1.56q1.16-1 1.75-2.4.59-1.39.59-3.08 0-3.43-2.26-5.17-2.27-1.75-6.75-1.75Zm34.99-4.1v38.42h-5.2V34.3Zm43.6 19.23q0 4.31-1.37 7.85-1.36 3.54-3.86 6.06-2.49 2.52-5.98 3.9-3.48 1.38-7.72 1.38h-14.37V34.3h14.37q4.24 0 7.72 1.38 3.49 1.38 5.98 3.92 2.5 2.53 3.86 6.07 1.37 3.54 1.37 7.86Zm-5.33 0q0-3.54-.97-6.33t-2.74-4.72q-1.76-1.93-4.29-2.95-2.52-1.02-5.6-1.02h-9.14v30h9.14q3.08 0 5.6-1.01 2.53-1.02 4.29-2.94 1.77-1.92 2.74-4.71.97-2.78.97-6.32Zm29.54 15.41q1.56 0 2.86-.14 1.3-.15 2.45-.45 1.16-.29 2.17-.71 1.02-.41 2.04-.95v-8.47h-5.95q-.51 0-.82-.3-.31-.29-.31-.72v-2.95h11.8V69q-1.45 1.04-3.01 1.82-1.57.78-3.36 1.3-1.78.52-3.82.78-2.04.25-4.42.25-4.18 0-7.67-1.43-3.49-1.44-6.01-4.02-2.52-2.59-3.92-6.21-1.41-3.62-1.41-7.96 0-4.4 1.38-8.02t3.94-6.21 6.19-4.01q3.64-1.42 8.14-1.42 2.28 0 4.24.34 1.96.33 3.63.96 1.68.63 3.1 1.53t2.65 2.02l-1.47 2.36q-.46.73-1.18.73-.43 0-.94-.3-.67-.37-1.5-.91-.83-.53-2.03-1.03-1.19-.5-2.81-.85-1.62-.34-3.85-.34-3.24 0-5.87 1.06-2.63 1.05-4.48 3.03-1.85 1.97-2.84 4.77t-.99 6.29q0 3.64 1.03 6.5 1.03 2.85 2.91 4.84 1.88 1.98 4.45 3.03 2.57 1.04 5.68 1.04Zm22.23-34.64h23.68v4.24h-18.45V51.3h14.94v4.08h-14.94v13.11h18.45v4.23h-23.68Z" filter="url(#a)" font-family="Lato" font-size="53.627"/></g><path fill="#06303e" stroke="#06bbcc" stroke-width="8.318" d="M861.452 2.608v125.784"/><path fill="#06bbcc" d="M819.34 27.44c-5.299 0-8.063 4.137-8.015 8.264.066 6.005 6.023 8.245 8.015 16.49 2.002-8.245 8.026-10.618 8.026-16.49 0-4.127-3.117-8.263-8.026-8.263m-63.078 22.684a4.956 4.956 0 0 1 4.766 4.728 4.956 4.956 0 0 1-4.766 4.727 4.91 4.91 0 0 1-4.727-4.727c0-2.478 2.25-4.728 4.727-4.728m-6.1 10.961H762.4l8.598 17.004-4.232 2.135-4.366-8.73v32.74h-5.594V83.732h-1.049v20.492h-5.585v-32.73l-4.413 8.73-4.184-2.135Zm65.642-7.52-.381.029c-10.961 1.553-16.975 4.584-19.634 8.74a8.58 8.58 0 0 0-1.144 6.548c.495 2.078 1.715 3.87 3.269 5.318 2.716 2.507 3.422 4.528 3.164 6.453-.266 1.935-1.715 4.184-4.594 6.52-5.737 4.67-16.603 9.273-29.661 12.943a2.145 2.145 0 1 0 1.172 4.117c13.344-3.745 24.496-8.292 31.177-13.725 3.336-2.726 5.7-5.795 6.167-9.302.476-3.508-1.144-7.063-4.499-10.17a6.67 6.67 0 0 1-2.05-3.183 3.81 3.81 0 0 1 .62-3.212c1.497-2.336 6.253-5.338 16.623-6.806a2.145 2.145 0 0 0-.229-4.27"/><path fill="#06bbcc" d="M909.33 92.534q.992.27 1.53.982.53.722.53 1.772 0 1.684-1.116 2.618-1.127.934-3.12.934h-5.285l.962-12.342h4.776q1.944 0 2.955.79 1.011.779 1.011 2.233 0 1.088-.577 1.858-.568.77-1.666 1.155m-1.839-4.852h-3.331l-.337 4.294h3.456q1.387 0 2.118-.597t.732-1.733q0-1.964-2.638-1.964m-.385 9.974q2.888 0 2.888-2.35 0-2.136-2.686-2.136h-3.572l-.346 4.486Zm11.293-7.52.472-.028v1.223l-.963.086q-1.28.126-1.906.751-.635.636-.722 1.81l-.404 4.862h-1.416l.684-8.51h1.367l-.106 1.367q.453-.722 1.184-1.098.722-.375 1.81-.462m2.667 8.703h-1.425l.684-8.53h1.425Zm-.741-10.629.144-1.598h1.714l-.125 1.598Zm10.494-1.713h1.425l-.982 12.342h-1.406l.106-1.328q-.433.683-1.184 1.068-.742.385-1.618.385-1.068 0-1.896-.5-.819-.5-1.271-1.425-.462-.924-.462-2.176 0-1.415.5-2.493t1.416-1.676q.905-.587 2.098-.587 1.002 0 1.743.433t1.117 1.213Zm-3.293 11.293q1.261 0 1.983-.953.713-.953.713-2.6 0-1.434-.655-2.195-.655-.77-1.896-.77-1.252 0-1.974.953-.732.944-.732 2.59 0 1.415.684 2.195.674.78 1.877.78m13.257-7.48h1.425l-.635 7.923q-.308 3.89-4.063 3.89-2.166 0-3.784-1.156l.55-1.06q.875.579 1.607.82t1.646.24q2.455 0 2.648-2.628l.106-1.252q-.424.703-1.175 1.098t-1.665.394q-1.685 0-2.687-1.068-1.01-1.069-1.01-2.85 0-1.338.5-2.368t1.406-1.608q.914-.578 2.127-.578 1.011 0 1.762.433.76.434 1.146 1.223Zm-3.023 7.095q1.28 0 2.003-.896.731-.885.731-2.445 0-1.338-.673-2.06-.684-.732-1.907-.732-1.28 0-2.002.905-.732.905-.732 2.484 0 1.328.664 2.04.674.704 1.916.704m7.827 1.434h-1.415l.684-8.53h1.415Zm-.731-10.629.135-1.598h1.713l-.115 1.598Zm8.231 1.897q1.435 0 2.186.751t.75 2.185q0 .318-.009.472l-.424 5.324h-1.415l.414-5.237q.02-.116.02-.366 0-1.945-1.878-1.945-1.184 0-1.887.713t-.809 1.954l-.385 4.881h-1.415l.684-8.53h1.376l-.096 1.32q.433-.723 1.184-1.127.76-.395 1.704-.395m11.977.202h1.425l-.636 7.924q-.317 3.89-4.062 3.89-2.176 0-3.784-1.156l.54-1.06q.875.579 1.617.82.731.24 1.646.24 2.455 0 2.647-2.628l.106-1.252q-.423.703-1.174 1.098-.76.394-1.666.394-1.685 0-2.695-1.068-1.002-1.069-1.002-2.85 0-1.338.5-2.368t1.406-1.608q.915-.578 2.119-.578 1.02 0 1.771.433t1.136 1.223Zm-3.023 7.096q1.27 0 2.002-.896.723-.885.723-2.445 0-1.338-.674-2.06-.674-.732-1.897-.732-1.28 0-2.003.905-.731.905-.731 2.484 0 1.328.664 2.04.664.704 1.916.704m19.736-10.908h1.666l-5.363 6.498-.452 5.844h-1.435l.453-5.824-4.342-6.518h1.627l3.504 5.304Zm4.17 12.467q-1.195 0-2.09-.51-.905-.5-1.386-1.444-.482-.934-.482-2.176 0-1.425.52-2.493.51-1.069 1.454-1.656.934-.578 2.176-.578 1.213 0 2.108.5.886.51 1.377 1.454.49.954.49 2.196 0 1.415-.51 2.483-.52 1.07-1.463 1.647-.953.577-2.195.577m.02-1.174q1.28 0 1.983-.963.712-.963.712-2.628 0-1.396-.655-2.157-.654-.77-1.867-.77-1.28 0-1.993.982-.722.982-.722 2.628 0 1.425.645 2.167.654.74 1.896.74m12.353-7.48h1.415l-.664 8.53h-1.387l.106-1.376q-.433.712-1.174 1.107-.732.394-1.647.394-1.415 0-2.156-.74-.732-.742-.732-2.186 0-.308.02-.472l.413-5.257h1.425l-.424 5.17q-.019.125-.019.366 0 1.926 1.839 1.926 1.146 0 1.83-.694.683-.702.77-1.944Zm8.337-.173.472-.029v1.223l-.963.086q-1.28.126-1.906.751-.636.636-.722 1.81l-.405 4.862h-1.415l.684-8.51h1.367l-.106 1.367q.452-.722 1.174-1.098.732-.375 1.82-.462m11.784 3.398.087-1.116h4.38l-.452 5.69q-.77.385-1.926.635-1.155.24-2.262.24-2.715 0-4.178-1.501-1.464-1.493-1.464-4.179 0-2.118.751-3.687.76-1.56 2.147-2.416 1.396-.848 3.293-.848 2.609 0 4.265 1.56l-.626 1.107q-.876-.77-1.723-1.107t-1.916-.337q-2.234.02-3.466 1.521-1.233 1.492-1.233 4.16 0 2.175 1.07 3.35 1.068 1.165 3.167 1.165 1.473 0 2.859-.472l.298-3.765Zm11.601-3.398.472-.029v1.223l-.963.086q-1.28.126-1.906.751-.635.636-.722 1.81l-.404 4.862h-1.416l.684-8.51h1.367l-.106 1.367q.453-.722 1.184-1.098.722-.375 1.81-.462m5.267-.029q3.032 0 3.032 2.908 0 .308-.019.48l-.414 5.344h-1.386l.106-1.357q-.385.731-1.06 1.107t-1.53.375q-1.28 0-2.099-.693-.809-.693-.809-1.762 0-.962.5-1.53.511-.568 1.638-.828 1.116-.26 3.023-.26h.635l.039-.51.01-.338q0-.905-.434-1.338-.443-.433-1.386-.433-1.435 0-2.889.915l-.385-1.05q.645-.452 1.589-.741.953-.289 1.839-.289m-.973 7.74q.992 0 1.695-.702t.77-1.8l.038-.55h-.49q-1.541 0-2.36.164-.808.174-1.116.501-.308.337-.308.934 0 .664.472 1.059t1.3.395m13.276-11.351h1.415l-.982 12.342h-1.396l.106-1.328q-.443.683-1.184 1.068-.751.385-1.618.385-1.068 0-1.896-.5t-1.28-1.425-.453-2.176q0-1.415.5-2.493t1.406-1.676q.915-.587 2.108-.587.992 0 1.743.433.741.434 1.107 1.213Zm-3.293 11.293q1.261 0 1.974-.953.722-.953.722-2.6 0-1.434-.655-2.195-.664-.77-1.906-.77t-1.964.953q-.732.944-.732 2.59 0 1.415.674 2.195t1.887.78m13.873-2.994h-6.258v.067q0 1.406.694 2.176t2.002.77q1.56 0 2.792-1.001l.405 1.059q-.53.5-1.435.799-.895.298-1.83.298-1.857 0-2.945-1.116-1.098-1.127-1.098-3.014 0-1.386.52-2.464.53-1.079 1.473-1.676.944-.587 2.205-.587 1.637 0 2.58.963.944.972.944 2.869 0 .404-.049.857m-3.417-3.591q-1.175 0-1.878.693t-.895 1.993h4.977q.058-1.339-.539-2.012t-1.665-.674m8.145 7.76q-.982 0-1.878-.29-.886-.288-1.57-.808l.56-1.06q.702.53 1.395.771.703.25 1.531.25 2.05 0 2.05-1.26 0-.579-.49-.858t-1.55-.597q-.905-.26-1.454-.51-.559-.24-.953-.712-.395-.462-.395-1.233 0-1.155.934-1.858.924-.693 2.455-.693.905 0 1.723.289.809.298 1.358.828l-.559 1.03q-1.165-.992-2.522-.992-.972 0-1.483.337-.52.347-.52.992 0 .578.501.857t1.512.577q.895.26 1.453.51.568.241.963.713.385.482.385 1.252 0 1.136-.943 1.8t-2.503.664m12.4-7.528-.328 4.322q-.019.126-.019.337 0 1.733 1.714 1.733.424 0 .77-.067l-.154 1.117q-.366.086-.828.086-1.415 0-2.166-.712-.76-.722-.76-2.031 0-.25.019-.395l.356-4.39h-1.666l.068-1.127h1.665l.212-2.59h1.415l-.212 2.59h2.436l-.086 1.127Zm7.269 7.528q-1.185 0-2.09-.51-.905-.5-1.386-1.444-.481-.934-.481-2.176 0-1.425.52-2.493.51-1.069 1.453-1.656.934-.578 2.176-.578 1.213 0 2.109.5.885.51 1.376 1.454.491.954.491 2.196 0 1.415-.51 2.483-.52 1.07-1.463 1.647-.953.577-2.195.577m.019-1.174q1.28 0 1.993-.963.703-.963.703-2.628 0-1.396-.655-2.157-.655-.77-1.868-.77-1.27 0-1.993.982t-.722 2.628q0 1.425.655 2.167.645.74 1.887.74m19.255-11.292h1.666l-5.363 6.498-.452 5.844h-1.445l.463-5.824-4.352-6.518h1.637l3.504 5.304Zm4.169 12.467q-1.194 0-2.1-.51-.894-.5-1.376-1.444-.481-.934-.481-2.176 0-1.425.51-2.493.52-1.069 1.454-1.656.943-.578 2.185-.578 1.204 0 2.1.5.894.51 1.385 1.454.491.954.491 2.196 0 1.415-.52 2.483t-1.463 1.647-2.185.577m.019-1.174q1.27 0 1.983-.963t.713-2.628q0-1.396-.655-2.157-.664-.77-1.868-.77-1.28 0-2.002.982-.713.982-.713 2.628 0 1.425.645 2.167t1.897.74m12.343-7.48h1.424l-.664 8.53h-1.386l.106-1.376q-.443.712-1.175 1.107-.741.394-1.646.394-1.425 0-2.157-.74t-.732-2.186q0-.308.01-.472l.424-5.257h1.415l-.414 5.17q-.02.125-.02.366 0 1.926 1.84 1.926 1.136 0 1.82-.694.683-.702.77-1.944Zm8.337-.173.481-.029v1.223l-.972.086q-1.27.126-1.906.751-.626.636-.713 1.81l-.404 4.862h-1.425l.684-8.51h1.367l-.106 1.367q.462-.722 1.184-1.098.732-.375 1.81-.462m5.979 8.703.962-12.342h4.083q2.782 0 4.293 1.482 1.502 1.493 1.502 4.188 0 2.09-.731 3.582-.742 1.502-2.157 2.3-1.415.79-3.418.79Zm1.54-1.222h2.927q2.416 0 3.649-1.396 1.242-1.406 1.242-4.073 0-4.429-4.439-4.429h-2.609Zm16.136-7.481.472-.029v1.223l-.963.086q-1.28.126-1.916.751-.626.636-.712 1.81l-.405 4.862h-1.415l.684-8.51h1.367l-.106 1.367q.452-.722 1.174-1.098.732-.375 1.82-.462m8.559 4.66h-6.248v.067q0 1.406.693 2.176t2.002.77q1.56 0 2.783-1.001l.404 1.059q-.52.5-1.425.799t-1.83.298q-1.857 0-2.955-1.116-1.088-1.127-1.088-3.014 0-1.386.52-2.464.53-1.079 1.473-1.676.944-.587 2.205-.587 1.627 0 2.58.963.944.972.944 2.869 0 .404-.058.857m-3.408-3.591q-1.175 0-1.878.693t-.895 1.993h4.977q.048-1.339-.539-2.012-.597-.674-1.665-.674m9.242-1.098q3.033 0 3.033 2.908 0 .308-.02.48l-.413 5.344h-1.387l.106-1.357q-.385.731-1.059 1.107t-1.53.375q-1.281 0-2.1-.693-.808-.693-.808-1.762 0-.962.5-1.53.51-.568 1.637-.828 1.117-.26 3.023-.26h.636l.028-.51.02-.338q0-.905-.434-1.338-.442-.433-1.386-.433-1.434 0-2.888.915l-.385-1.05q.645-.452 1.588-.741.953-.289 1.84-.289m-.983 7.74q1.001 0 1.704-.702t.77-1.8l.039-.55h-.491q-1.54 0-2.359.164-.818.174-1.117.501-.308.337-.308.934 0 .664.472 1.059t1.29.395m16.242-7.741q1.328 0 2.012.741t.684 2.167q0 .327-.01.5l-.424 5.324h-1.415l.414-5.247q.02-.144.02-.423 0-.963-.415-1.416-.414-.462-1.251-.462-1.069 0-1.695.703-.635.703-.722 1.993l-.385 4.852h-1.415l.414-5.247q.02-.144.02-.423 0-.963-.415-1.416-.404-.462-1.252-.462-1.068 0-1.694.703-.635.703-.741 1.993l-.385 4.852h-1.416l.684-8.51h1.386l-.106 1.241q.876-1.463 2.677-1.463.982 0 1.617.404.645.414.905 1.204.443-.77 1.194-1.194.751-.414 1.714-.414m14.894 8.877q-1.618 0-2.802-.703-1.194-.703-1.839-2.003-.655-1.309-.655-3.09 0-2.07.732-3.61.722-1.54 2.06-2.388 1.348-.838 3.168-.838 1.348 0 2.465.395 1.107.395 1.896 1.165l-.635 1.088q-.819-.751-1.685-1.078t-2.022-.328q-2.118 0-3.302 1.493t-1.184 4.12q0 2.166 1.03 3.35 1.04 1.185 2.965 1.185 1.964 0 3.62-1.425l.482 1.107q-.828.77-1.916 1.165t-2.378.395m9.945-.02q-1.194 0-2.09-.51-.904-.5-1.386-1.444-.481-.934-.481-2.176 0-1.425.52-2.493.51-1.069 1.454-1.656.933-.578 2.175-.578 1.214 0 2.109.5.886.51 1.377 1.454.49.954.49 2.196 0 1.415-.51 2.483-.52 1.07-1.463 1.647-.953.577-2.195.577m.02-1.174q1.28 0 1.992-.963.703-.963.703-2.628 0-1.396-.655-2.157-.654-.77-1.868-.77-1.28 0-1.992.982-.723.982-.723 2.628 0 1.425.655 2.167.645.74 1.887.74m7.336 1.05h-1.415l.982-12.342h1.415Zm4.073 0h-1.425l.982-12.342h1.415Zm10.138-4.043h-6.258v.067q0 1.406.693 2.176t2.012.77q1.56 0 2.782-1.001l.405 1.059q-.53.5-1.425.799-.905.298-1.839.298-1.848 0-2.946-1.116-1.098-1.127-1.098-3.014 0-1.386.53-2.464.52-1.079 1.473-1.676.943-.587 2.205-.587 1.627 0 2.57.963.944.972.944 2.869 0 .404-.048.857m-3.418-3.591q-1.175 0-1.868.693-.703.693-.895 1.993h4.968q.057-1.339-.54-2.012t-1.665-.674m12.034-.896h1.425l-.635 7.924q-.318 3.89-4.063 3.89-2.176 0-3.784-1.156l.54-1.06q.876.579 1.617.82.732.24 1.646.24 2.455 0 2.648-2.628l.096-1.252q-.414.703-1.165 1.098-.76.394-1.665.394-1.685 0-2.696-1.068-1.001-1.069-1.001-2.85 0-1.338.5-2.368.491-1.03 1.406-1.608t2.118-.578q1.02 0 1.771.433t1.136 1.223Zm-3.032 7.096q1.28 0 2.012-.896.722-.885.722-2.445 0-1.338-.674-2.06-.674-.732-1.897-.732-1.28 0-2.012.905-.722.905-.722 2.484 0 1.328.664 2.04.665.704 1.907.704m13.911-2.61h-6.248v.068q0 1.406.684 2.176.693.77 2.012.77 1.56 0 2.782-1.001l.405 1.059q-.53.5-1.425.799-.905.298-1.84.298-1.848 0-2.945-1.116-1.098-1.127-1.098-3.014 0-1.386.53-2.464.52-1.079 1.473-1.676.943-.587 2.205-.587 1.627 0 2.57.963.953.972.953 2.869 0 .404-.058.857m-3.417-3.591q-1.175 0-1.868.693-.703.693-.895 1.993h4.977q.048-1.339-.549-2.012t-1.665-.674" font-family="Nunito Sans" font-size="18.195" font-style="italic"/><path fill="transparent" stroke="transparent" d="M731.5 0h537v131h-537z"/></g></svg>